<?xml version="1.0" encoding="UTF-8"?><svg id="Layer_2" xmlns="http://www.w3.org/2000/svg" viewBox="0 0 178.38 252.78"><defs><style>.cls-1{fill:#0f0f0f;}</style></defs><g id="Layer_1-2"><path class="cls-1" d="M174.42,96.18c-13.03,37.81-54.4,57.98-92.22,44.94-37.82-13.03-57.98-54.4-44.94-92.22C50.3,11.09,91.66-9.07,129.48,3.97c37.81,13.03,57.97,54.4,44.94,92.22ZM46.72,52.16c-11.24,32.6,6.14,68.27,38.75,79.51,32.6,11.24,68.27-6.14,79.5-38.75,11.24-32.6-6.14-68.27-38.74-79.5S57.95,19.56,46.72,52.16Z"/><path class="cls-1" d="M67.35,101.34c-8.59-6.56-12.39-18.66-10.19-29.08,.66-3.11,1.8-6.01,3.47-8.71s-2.63-5.26-4.32-2.52c-6.78,10.98-6.1,25.8,.91,36.52,2.06,3.16,4.61,5.84,7.6,8.12,1.07,.82,2.8,.17,3.42-.9,.75-1.29,.18-2.6-.9-3.42h0Z"/><path class="cls-1" d="M42.73,122.76c-8.67,17.51-19.17,34.14-31.38,49.41-3.43,4.29-7,8.48-10.68,12.56-2.15,2.38,1.37,5.93,3.54,3.54,13.28-14.71,25.02-30.83,34.88-48.03,2.81-4.9,5.46-9.88,7.96-14.94,1.42-2.87-2.89-5.41-4.32-2.52h0Z"/><path class="cls-1" d="M55.4,148.81c-6.08,7.93-10.48,17.11-12.91,26.8-.78,3.12,4.04,4.45,4.82,1.33,2.34-9.32,6.56-17.99,12.41-25.61,.82-1.07,.17-2.8-.9-3.42-1.29-.75-2.6-.18-3.42,.9h0Z"/><path class="cls-1" d="M72.52,160.35c-5.75,11.45-10.79,23.05-15.1,34.78s-7.89,23.58-10.72,35.51c-1.62,6.8-2.99,13.62-4.14,20.46-.15,.9,1.26,1.68,2.5,1.68,1.48,0,2.35-.77,2.5-1.68,1.99-11.91,4.73-23.76,8.2-35.51s7.66-23.39,12.56-34.9c2.78-6.53,5.79-13.01,9.02-19.44,1.03-2.05-3.8-2.93-4.82-.89h0Z"/></g></svg>