<?xml version="1.0" encoding="UTF-8"?>
<svg id="Layer_2" data-name="Layer 2" xmlns="http://www.w3.org/2000/svg" viewBox="0 0 70.23 22.32">
  <defs>
    <style>
      .cls-1 {
        fill: #231f20;
      }
    </style>
  </defs>
  <g id="Layer_1-2" data-name="Layer 1">
    <path class="cls-1" d="M70.16,11.54c.1-.24,.1-.52,0-.76-.05-.12-.12-.23-.22-.33L59.78,.29c-.39-.39-1.02-.39-1.41,0s-.39,1.02,0,1.41l8.45,8.45H1c-.55,0-1,.45-1,1s.45,1,1,1H66.82l-8.45,8.45c-.39,.39-.39,1.02,0,1.41,.2,.2,.45,.29,.71,.29s.51-.1,.71-.29l10.16-10.16c.09-.09,.17-.2,.22-.33Z"/>
  </g>
</svg>